<svg xmlns="http://www.w3.org/2000/svg" width="79.885" height="79.729" viewBox="0 0 79.885 79.729">
  <g id="Group_23531" data-name="Group 23531" transform="translate(-0.969 -1)">
    <path id="Path_47025" data-name="Path 47025" d="M11.882,19.827,5.744,25.964a7.3,7.3,0,0,1-2.383,1.6.6.6,0,0,0-.382.553V52.3a.623.623,0,0,0,.623.623h8.72a.623.623,0,0,0,.623-.623V20.267A.623.623,0,0,0,11.882,19.827Z" transform="translate(2.998 27.807)" fill="#0c48ca"/>
    <path id="Path_47026" data-name="Path 47026" d="M15.683,15.026a.623.623,0,0,0-.881,0L9.221,20.607a.623.623,0,0,0-.182.44V59.458a.633.633,0,0,0,.623.623h8.72A.623.623,0,0,0,19,59.458V18.606a.623.623,0,0,0-.182-.44Z" transform="translate(12.037 20.648)" fill="#0c48ca"/>
    <path id="Path_47027" data-name="Path 47027" d="M24.179,20.153A8.26,8.26,0,0,1,16.846,20a.868.868,0,0,1-.2-.142L15.109,18.32V54.273a.623.623,0,0,0,.623.623h8.72a.633.633,0,0,0,.623-.623V20.75A.639.639,0,0,0,24.179,20.153Z" transform="translate(21.09 25.834)" fill="#0c48ca"/>
    <path id="Path_47028" data-name="Path 47028" d="M30.072,13.4l-8.72,8.72a.623.623,0,0,0-.182.44V61.89a.623.623,0,0,0,.623.623h8.72a.623.623,0,0,0,.623-.623V13.837A.623.623,0,0,0,30.072,13.4Z" transform="translate(30.129 18.216)" fill="#0c48ca"/>
    <path id="Path_47029" data-name="Path 47029" d="M33.624,8.7a.623.623,0,0,0-.882,0l-5.331,5.331a.623.623,0,0,0-.182.44V68.9a.623.623,0,0,0,.623.623h8.72a.623.623,0,0,0,.623-.623V12.291c-.025-.05-.075-.075-.1-.1Z" transform="translate(39.168 11.208)" fill="#0c48ca"/>
    <path id="Path_47030" data-name="Path 47030" d="M5.222,50.257,27.286,28.193,40.162,41.069a2.491,2.491,0,0,0,3.523,0L72.338,12.416l7.453,7.453a.623.623,0,0,0,1.063-.44V1.623A.623.623,0,0,0,80.231,1H62.425a.623.623,0,0,0-.44,1.063l6.83,6.83L41.924,35.784,29.047,22.908a2.491,2.491,0,0,0-3.523,0L1.7,46.733a2.491,2.491,0,0,0,3.523,3.523Z" fill="#259ffb"/>
  </g>
</svg>
