<svg xmlns="http://www.w3.org/2000/svg" width="82.999" height="95.061" viewBox="0 0 82.999 95.061">
  <g id="Group_25081" data-name="Group 25081" transform="translate(-934.001 -4588.002)">
    <path id="Subtraction_1" data-name="Subtraction 1" d="M8336,18689.063h0v0a95.548,95.548,0,0,1-32.651-10.795A96.358,96.358,0,0,1,8253,18594h83Z" transform="translate(-7319 -14006)" fill="#19bc73"/>
    <path id="Icon_awesome-quote-left" data-name="Icon awesome-quote-left" d="M24.963,14.3h-4.3V10.858A3.446,3.446,0,0,1,24.1,7.415h.43a1.288,1.288,0,0,0,1.291-1.291V3.541A1.288,1.288,0,0,0,24.533,2.25H24.1a8.606,8.606,0,0,0-8.608,8.608V23.77a2.583,2.583,0,0,0,2.582,2.582h6.886a2.583,2.583,0,0,0,2.582-2.582V16.884A2.583,2.583,0,0,0,24.963,14.3Zm-15.494,0h-4.3V10.858A3.446,3.446,0,0,1,8.608,7.415h.43A1.288,1.288,0,0,0,10.33,6.124V3.541A1.288,1.288,0,0,0,9.038,2.25h-.43A8.606,8.606,0,0,0,0,10.858V23.77a2.583,2.583,0,0,0,2.582,2.582H9.469a2.583,2.583,0,0,0,2.582-2.582V16.884A2.583,2.583,0,0,0,9.469,14.3Z" transform="translate(971 4604.688)" fill="#f7f7f7"/>
  </g>
</svg>
